# xmcd
#
# Track frame offsets: 
#        150
#        17442
#        32461
#        47101
#        54353
#        64636
#        83265
#        98243
#        104523
#        120612
#        132549
#        144419
#        152865
#        162418
#        177206
#        191719
#
# Disc length: 2643 seconds
#
# Revision: 0
# Processed by: cddbd v1.5.2PL0 Copyright (c) Steve Scherf et al.
# Submitted via: ExactAudioCopyFreeDBPlugin 1.0
#
DISCID=cd0a5110
DTITLE=CeDell Davis - Last Man Standing
DYEAR=2015
DGENRE=Blues
TTITLE0=Catfish and Cornbread
TTITLE1=Rollin' and Tumblin'
TTITLE2=Chicken Hawk
TTITLE3=Purty Women
TTITLE4=Teenie Weenie Bit
TTITLE5=Who's Lovin' You Tonight
TTITLE6=Ridin' In My '74
TTITLE7=Mississippi Story
TTITLE8=Turn On Your Light
TTITLE9=Need You So
TTITLE10=Yackity Yack
TTITLE11=Wind Up Grac-A-Phone
TTITLE12=The Horror
TTITLE13=Every Day Seem The Same
TTITLE14=Further On Up The Road
TTITLE15=Ain't Feelin' To Go
EXTD=
EXTT0=
EXTT1=
EXTT2=
EXTT3=
EXTT4=
EXTT5=
EXTT6=
EXTT7=
EXTT8=
EXTT9=
EXTT10=
EXTT11=
EXTT12=
EXTT13=
EXTT14=
EXTT15=
PLAYORDER=
